<svg width="16" height="16" viewBox="0 0 16 16" fill="none" xmlns="http://www.w3.org/2000/svg">
<rect width="16" height="16" fill="black"/>
<path d="M6.857 13.5385C6.857 13.6356 6.77828 13.7143 6.68118 13.7143H4.74711C4.65001 13.7143 4.57129 13.6356 4.57129 13.5385V4.74724C4.57129 4.65014 4.65001 4.57142 4.74711 4.57142H6.857V6.68131C6.857 6.77841 6.93572 6.85713 7.03283 6.85713H11.2526C11.3497 6.85713 11.4284 6.93585 11.4284 7.03296V8.96702C11.4284 9.06413 11.3497 9.14285 11.2526 9.14285H7.03283C6.93572 9.14285 6.857 9.22157 6.857 9.31867V13.5385Z" fill="white"/>
<path d="M11.4284 4.3956C11.4284 4.4927 11.3497 4.57142 11.2526 4.57142H6.857V2.46153C6.857 2.36442 6.93572 2.28571 7.03283 2.28571H11.2526C11.3497 2.28571 11.4284 2.36442 11.4284 2.46153V4.3956Z" fill="white"/>
</svg>
